<?xml version="1.0" encoding="UTF-8" standalone="no"?>
<svg
  width="600"
  height="600"
  viewBox="0 0 158.75 158.75"
  version="1.1"
  xml:space="preserve"
  xmlns="http://www.w3.org/2000/svg"
  xmlns:svg="http://www.w3.org/2000/svg">
  <defs id="defs1" />
  <g id="layer1">
    <g id="g6"
       transform="matrix(2.1430945,0,0,2.1430945,-36.372936,-106.6131)"
       style="stroke-width:0.69282">
      <path
         id="path1"
         style="fill:#44c2cc;fill-opacity:1;stroke-width:0.04856"
         d="m 54.009707,55.920196 -8.90984,15.432359 8.90984,15.432224 8.909838,-15.432224 z" />
      <path
         id="path2"
         style="fill:#1b365d;fill-opacity:1;stroke-width:0.04856"
         d="m 80.73928,71.352523 -17.819735,3.2e-5 -8.909778,15.43226 17.819617,3.4e-5 z" />
      <path
         id="path3"
         style="fill:#9ec53a;fill-opacity:1;stroke-width:0.04856"
         d="m 27.280162,102.21716 17.819735,-3e-5 8.909778,-15.432264 -17.819617,-3.4e-5 z" />
      <path
         id="path4"
         style="fill:#1f3c7e;fill-opacity:1;stroke-width:0.04856"
         d="m 27.280162,71.352505 8.909896,15.432327 17.819618,-3.6e-5 -8.909779,-15.432258 z" />
      <path
         id="path5"
         style="fill:#038645;fill-opacity:1;stroke-width:0.04856"
         d="m 80.73928,102.21714 -8.909896,-15.432326 -17.819617,3.6e-5 8.909774,15.43226 z" />
      <path
         id="path6"
         style="fill:#3c3e3f;fill-opacity:1;stroke-width:0.04856"
         d="m 54.009708,117.64947 8.909833,-15.43236 -8.909835,-15.432226 -8.90984,15.432226 z" />
    </g>
  </g>
</svg>